<svg xmlns="http://www.w3.org/2000/svg"><path fill-rule="evenodd" clip-rule="evenodd" d="M25.8411 11.9977C26.6778 11.9977 27.4597 12.414 27.9268 13.1082C28.6951 14.2498 28.6876 15.745 27.908 16.8789L27.1796 17.9383L27.8546 19.5037C28.257 20.4368 28.1597 21.5102 27.596 22.3558L26.4999 24V25.9977C26.4999 27.1023 25.6044 27.9977 24.4999 27.9977L11.9999 27.9976C10.8953 27.9976 9.99987 27.1022 9.99987 25.9976V12.8264C9.99987 11.9927 10.2604 11.1799 10.7449 10.5015L15.8632 3.33586C16.0776 3.03569 16.4721 2.92531 16.8112 3.07062C18.5762 3.82706 19.5347 5.74955 19.0766 7.6144L17.9999 11.9976L25.8411 11.9977ZM5 13.4999C3.89543 13.4999 3 14.3954 3 15.4999V25.9999C3 27.1045 3.89543 27.9999 5 27.9999H8V13.4999H5Z"></path></svg>
